{"title":"Lana Del Rey - Video Games - Late Show With David Letterman - 20","uid":7016567,"size":589746036,"categoryP":"video","categoryS":"other","magnet":"?xt=urn:btih:372fff7db56bfb46200f968573ca1a6b95d5f2f6&amp;dn=Lana+Del+Rey+-+Video+Games+-+Late+Show+With+David+Letterman+-+20&amp;tr=udp%3A%2F%2Ftracker.openbittorrent.com%3A80&amp;tr=udp%3A%2F%2Fopen.demonii.com%3A1337&amp;tr=udp%3A%2F%2Ftracker.coppersurfer.tk%3A6969&amp;tr=udp%3A%2F%2Fexodus.desync.com%3A6969","seeders":0,"leechers":0,"uploader":"Phntzm79","files":1,"time":1328683766,"description":"Format                           : MPEG-TS\nFile size                        : 562 MiB\nDuration                         : 4mn 38s\nOverall bit rate mode            : Variable\nOverall bit rate                 : 17.0 Mbps\n\nVideo\nID                               : 2048 (0x800)\nMenu ID                          : 1 (0x1)\nFormat                           : MPEG Video\nFormat version                   : Version 2\nFormat profile                   : Main@High\nFormat settings, BVOP            : Yes\nFormat settings, Matrix          : Custom\nCodec ID                         : 2\nDuration                         : 4mn 38s\nBit rate mode                    : Variable\nBit rate                         : 15.7 Mbps\nWidth                            : 1 920 pixels\nHeight                           : 1 080 pixels\nDisplay aspect ratio             : 16:9\nFrame rate                       : 29.970 fps\nColor space                      : YUV\nChroma subsampling               : 4:2:0\nBit depth                        : 8 bits\nScan type                        : Interlaced\nScan order                       : Top Field First\nCompression mode                 : Lossy\nBits/(Pixel*Frame)               : 0.253\nStream size                      : 522 MiB (93%)\nColor primaries                  : BT.709\nTransfer characteristics         : BT.709\nMatrix coefficients              : BT.709\n\nAudio\nID                               : 2049 (0x801)\nMenu ID                          : 1 (0x1)\nFormat                           : AC-3\nFormat/Info                      : Audio Coding 3\nMode extension                   : CM (complete main)\nCodec ID                         : 129\nDuration                         : 4mn 38s\nBit rate mode                    : Constant\nBit rate                         : 384 Kbps\nChannel(s)                       : 6 channels\nChannel positions                : Front: L C R, Side: L R, LFE\nSampling rate                    : 48.0 KHz\nBit depth                        : 16 bits\nCompression mode                 : Lossy\nDelay relative to video          : -22ms\nStream size                      : 12.7 MiB (2%)\nLanguage                         : English\n\nText #1\nID                               : 2048 (0x800)-608-1\nMenu ID                          : 1 (0x1)\nFormat                           : EIA-608\nMuxing mode                      : A/53 / DTVCC Transport\nMuxing mode, more info           : Muxed in Video #1\nDuration                         : 4mn 38s\nBit rate mode                    : Constant\nStream size                      : 0.00 Byte (0%)\n\nText #2\nID                               : 2048 (0x800)-1\nMenu ID                          : 1 (0x1)\nFormat                           : EIA-708\nMuxing mode                      : A/53 / DTVCC Transport\nMuxing mode, more info           : Muxed in Video #1\nDuration                         : 4mn 38s\nBit rate mode                    : Constant\nStream size                      : 0.00 Byte (0%)\n","torrent":{"xt":"urn:btih:372fff7db56bfb46200f968573ca1a6b95d5f2f6","amp;dn":"Lana+Del+Rey+-+Video+Games+-+Late+Show+With+David+Letterman+-+20","amp;tr":["udp%3A%2F%2Ftracker.openbittorrent.com%3A80","udp%3A%2F%2Fopen.demonii.com%3A1337","udp%3A%2F%2Ftracker.coppersurfer.tk%3A6969","udp%3A%2F%2Fexodus.desync.com%3A6969"],"infoHash":"372fff7db56bfb46200f968573ca1a6b95d5f2f6","infoHashBuffer":{"type":"Buffer","data":[55,47,255,125,181,107,251,70,32,15,150,133,115,202,26,107,149,213,242,246]},"announce":[],"urlList":[]}}